<svg width="100" height="166" viewBox="0 0 100 166" fill="none" xmlns="http://www.w3.org/2000/svg">
<path d="M88.4414 153.39L88.4414 151.521L99.1621 151.521L99.1621 153.39L88.4414 153.39ZM92.8027 157.955L92.8027 146.568L94.79 146.568L94.79 157.955L92.8027 157.955Z" fill="#DD005C"/>
<path d="M88.4414 118.39L88.4414 116.521L99.1621 116.521L99.1621 118.39L88.4414 118.39ZM92.8027 122.955L92.8027 111.568L94.79 111.568L94.79 122.955L92.8027 122.955Z" fill="#E5E5E5"/>
<path d="M88.4414 83.3896L88.4414 81.5205L99.1621 81.5205L99.1621 83.3896L88.4414 83.3896ZM92.8027 87.9551L92.8027 76.5684L94.79 76.5684L94.79 87.9551L92.8027 87.9551Z" fill="#E5E5E5"/>
<path d="M53.4414 153.39L53.4414 151.521L64.1621 151.521L64.1621 153.39L53.4414 153.39ZM57.8027 157.955L57.8027 146.568L59.79 146.568L59.79 157.955L57.8027 157.955Z" fill="#E5E5E5"/>
<path d="M53.4414 118.39L53.4414 116.521L64.1621 116.521L64.1621 118.39L53.4414 118.39ZM57.8027 122.955L57.8027 111.568L59.79 111.568L59.79 122.955L57.8027 122.955Z" fill="#E5E5E5"/>
<path d="M53.4414 83.3896L53.4414 81.5205L64.1621 81.5205L64.1621 83.3896L53.4414 83.3896ZM57.8027 87.9551L57.8027 76.5684L59.79 76.5684L59.79 87.9551L57.8027 87.9551Z" fill="#E5E5E5"/>
<path d="M53.4414 48.3896L53.4414 46.5205L64.1621 46.5205L64.1621 48.3896L53.4414 48.3896ZM57.8027 52.9551L57.8027 41.5684L59.79 41.5684L59.79 52.9551L57.8027 52.9551Z" fill="#E5E5E5"/>
<path d="M18.4414 153.39L18.4414 151.521L29.1621 151.521L29.1621 153.39L18.4414 153.39ZM22.8027 157.955L22.8027 146.568L24.79 146.568L24.79 157.955L22.8027 157.955Z" fill="#E5E5E5"/>
<path d="M18.4414 118.39L18.4414 116.521L29.1621 116.521L29.1621 118.39L18.4414 118.39ZM22.8027 122.955L22.8027 111.568L24.79 111.568L24.79 122.955L22.8027 122.955Z" fill="#E5E5E5"/>
<path d="M18.4414 83.3896L18.4414 81.5205L29.1621 81.5205L29.1621 83.3896L18.4414 83.3896ZM22.8027 87.9551L22.8027 76.5684L24.79 76.5684L24.79 87.9551L22.8027 87.9551Z" fill="#66377B"/>
<path d="M18.4414 48.3896L18.4414 46.5205L29.1621 46.5205L29.1621 48.3896L18.4414 48.3896ZM22.8027 52.9551L22.8027 41.5684L24.79 41.5684L24.79 52.9551L22.8027 52.9551Z" fill="#E5E5E5"/>
<path d="M18.4414 13.3896L18.4414 11.5205L29.1621 11.5205L29.1621 13.3896L18.4414 13.3896ZM22.8027 17.9551L22.8027 6.56836L24.79 6.56836L24.79 17.9551L22.8027 17.9551Z" fill="#E5E5E5"/>
</svg>
