<svg width="124" height="166" viewBox="0 0 124 166" fill="none" xmlns="http://www.w3.org/2000/svg">
<path d="M112.441 153.39L112.441 151.521L123.162 151.521L123.162 153.39L112.441 153.39ZM116.803 157.955L116.803 146.568L118.79 146.568L118.79 157.955L116.803 157.955Z" fill="#DD005C"/>
<path d="M112.441 118.39L112.441 116.521L123.162 116.521L123.162 118.39L112.441 118.39ZM116.803 122.955L116.803 111.568L118.79 111.568L118.79 122.955L116.803 122.955Z" fill="#E5E5E5"/>
<path d="M112.441 83.3896L112.441 81.5205L123.162 81.5205L123.162 83.3896L112.441 83.3896ZM116.803 87.9551L116.803 76.5684L118.79 76.5684L118.79 87.9551L116.803 87.9551Z" fill="#E5E5E5"/>
<path d="M77.4414 153.39L77.4414 151.521L88.1621 151.521L88.1621 153.39L77.4414 153.39ZM81.8027 157.955L81.8027 146.568L83.79 146.568L83.79 157.955L81.8027 157.955Z" fill="#E5E5E5"/>
<path d="M77.4414 118.39L77.4414 116.521L88.1621 116.521L88.1621 118.39L77.4414 118.39ZM81.8027 122.955L81.8027 111.568L83.79 111.568L83.79 122.955L81.8027 122.955Z" fill="#E5E5E5"/>
<path d="M77.4414 83.3896L77.4414 81.5205L88.1621 81.5205L88.1621 83.3896L77.4414 83.3896ZM81.8027 87.9551L81.8027 76.5684L83.79 76.5684L83.79 87.9551L81.8027 87.9551Z" fill="#E5E5E5"/>
<path d="M77.4414 48.3896L77.4414 46.5205L88.1621 46.5205L88.1621 48.3896L77.4414 48.3896ZM81.8028 52.9551L81.8028 41.5684L83.7901 41.5684L83.7901 52.9551L81.8028 52.9551Z" fill="#E5E5E5"/>
<path d="M42.4414 153.39L42.4414 151.521L53.1621 151.521L53.1621 153.39L42.4414 153.39ZM46.8027 157.955L46.8027 146.568L48.79 146.568L48.79 157.955L46.8027 157.955Z" fill="#E5E5E5"/>
<path d="M42.4414 118.39L42.4414 116.521L53.1621 116.521L53.1621 118.39L42.4414 118.39ZM46.8027 122.955L46.8027 111.568L48.79 111.568L48.79 122.955L46.8027 122.955Z" fill="#E5E5E5"/>
<path d="M42.4414 83.3896L42.4414 81.5205L53.1621 81.5205L53.1621 83.3896L42.4414 83.3896ZM46.8027 87.9551L46.8027 76.5684L48.79 76.5684L48.79 87.9551L46.8027 87.9551Z" fill="#66377B"/>
<path d="M42.4414 48.3896L42.4414 46.5205L53.1621 46.5205L53.1621 48.3896L42.4414 48.3896ZM46.8028 52.9551L46.8028 41.5684L48.7901 41.5684L48.7901 52.9551L46.8028 52.9551Z" fill="#E5E5E5"/>
<path d="M42.4414 13.3896L42.4414 11.5205L53.1621 11.5205L53.1621 13.3896L42.4414 13.3896ZM46.8028 17.9551L46.8028 6.56836L48.7901 6.56836L48.7901 17.9551L46.8028 17.9551Z" fill="#E5E5E5"/>
<path d="M7.44141 153.39L7.44141 151.521L18.1621 151.521L18.1621 153.39L7.44141 153.39ZM11.8027 157.955L11.8027 146.568L13.79 146.568L13.79 157.955L11.8027 157.955Z" fill="#E5E5E5"/>
<path d="M7.44141 118.39L7.44141 116.521L18.1621 116.521L18.1621 118.39L7.44141 118.39ZM11.8027 122.955L11.8027 111.568L13.79 111.568L13.79 122.955L11.8027 122.955Z" fill="#E5E5E5"/>
<path d="M7.44141 83.3896L7.44141 81.5205L18.1621 81.5205L18.1621 83.3896L7.44141 83.3896ZM11.8027 87.9551L11.8027 76.5684L13.79 76.5684L13.79 87.9551L11.8027 87.9551Z" fill="#E5E5E5"/>
<path d="M7.44142 48.3896L7.44142 46.5205L18.1621 46.5205L18.1621 48.3896L7.44142 48.3896ZM11.8028 52.9551L11.8028 41.5684L13.7901 41.5684L13.7901 52.9551L11.8028 52.9551Z" fill="#E5E5E5"/>
<path d="M7.44142 13.3896L7.44142 11.5205L18.1621 11.5205L18.1621 13.3896L7.44142 13.3896ZM11.8028 17.9551L11.8028 6.56836L13.7901 6.56836L13.7901 17.9551L11.8028 17.9551Z" fill="#E5E5E5"/>
</svg>
