<svg width="16" height="16" viewBox="0 0 16 16" fill="none" xmlns="http://www.w3.org/2000/svg">
<path d="M4.6867 0.0560722C3.8355 0.0962322 3.25422 0.232072 2.74606 0.431752C2.22014 0.636712 1.77438 0.911752 1.33086 1.35687C0.887342 1.80199 0.614222 2.24807 0.410702 2.77479C0.213742 3.28407 0.0803025 3.86583 0.0427025 4.71751C0.00510246 5.56919 -0.00321755 5.84295 0.000942454 8.01543C0.00510245 10.1879 0.0147025 10.4602 0.0559825 11.3137C0.0966225 12.1647 0.231982 12.7458 0.431662 13.2542C0.636942 13.7801 0.911662 14.2257 1.35694 14.6694C1.80222 15.113 2.24798 15.3855 2.77598 15.5894C3.28478 15.786 3.8667 15.9201 4.71822 15.9574C5.56974 15.9946 5.84382 16.0033 8.01566 15.9991C10.1875 15.995 10.4609 15.9854 11.3142 15.9449C12.1675 15.9044 12.7456 15.7681 13.2541 15.5694C13.78 15.3636 14.2259 15.0894 14.6693 14.6439C15.1126 14.1985 15.3856 13.7521 15.5889 13.225C15.7861 12.7162 15.92 12.1343 15.9569 11.2834C15.9942 10.4295 16.003 10.1569 15.9989 7.98471C15.9947 5.81255 15.9849 5.54023 15.9445 4.68711C15.904 3.83399 15.7685 3.25463 15.5689 2.74599C15.3633 2.22007 15.0889 1.77479 14.6438 1.33079C14.1987 0.886792 13.752 0.613992 13.2251 0.411112C12.716 0.214152 12.1344 0.0799122 11.2829 0.0431122C10.4313 0.00631216 10.1573 -0.00312784 7.98462 0.00103216C5.81198 0.00519216 5.53998 0.0144722 4.6867 0.0560722ZM4.78014 14.5182C4.00014 14.4842 3.57662 14.3546 3.29438 14.2462C2.92062 14.1022 2.65438 13.9281 2.3731 13.6495C2.09182 13.371 1.91902 13.1038 1.7731 12.7308C1.6635 12.4486 1.5315 12.0255 1.49502 11.2455C1.45534 10.4025 1.44702 10.1494 1.44238 8.01351C1.43774 5.87767 1.4459 5.62487 1.48286 4.78151C1.51614 4.00215 1.64654 3.57815 1.75486 3.29607C1.89886 2.92183 2.0723 2.65607 2.3515 2.37495C2.6307 2.09383 2.8971 1.92071 3.27038 1.77479C3.5523 1.66471 3.97534 1.53383 4.75502 1.49671C5.5987 1.45671 5.8515 1.44871 7.98702 1.44407C10.1225 1.43943 10.376 1.44743 11.22 1.48455C11.9993 1.51847 12.4235 1.64759 12.7053 1.75655C13.0792 1.90055 13.3453 2.07351 13.6264 2.35319C13.9075 2.63287 14.0808 2.89831 14.2267 3.27239C14.3369 3.55351 14.4678 3.97639 14.5046 4.75655C14.5448 5.60023 14.5539 5.85319 14.5577 7.98855C14.5616 10.1239 14.5541 10.3775 14.5171 11.2206C14.483 12.0006 14.3537 12.4242 14.2451 12.7068C14.1011 13.0804 13.9275 13.3468 13.6481 13.6278C13.3688 13.9087 13.1027 14.0818 12.7293 14.2278C12.4477 14.3377 12.0241 14.4689 11.2451 14.506C10.4014 14.5457 10.1486 14.554 8.0123 14.5586C5.87598 14.5633 5.62398 14.5546 4.7803 14.5182M11.3019 3.72439C11.3022 3.91428 11.3588 4.0998 11.4646 4.2575C11.5704 4.4152 11.7205 4.538 11.8961 4.61036C12.0716 4.68271 12.2647 4.70139 12.4509 4.66401C12.637 4.62663 12.8079 4.53488 12.942 4.40037C13.076 4.26585 13.1671 4.09462 13.2038 3.90831C13.2405 3.72201 13.2211 3.52901 13.1481 3.35372C13.0751 3.17843 12.9518 3.02872 12.7937 2.92354C12.6356 2.81835 12.4499 2.76241 12.26 2.76279C12.0054 2.7633 11.7615 2.86489 11.5818 3.04521C11.4022 3.22554 11.3015 3.46984 11.3019 3.72439ZM3.8923 8.00807C3.89678 10.2769 5.73934 12.1119 8.00766 12.1076C10.276 12.1033 12.1123 10.2609 12.108 7.99207C12.1037 5.72327 10.2606 3.88775 7.99198 3.89223C5.72334 3.89671 3.88798 5.73959 3.8923 8.00807ZM5.33326 8.00519C5.33222 7.47777 5.4876 6.96188 5.77975 6.52276C6.07191 6.08364 6.48772 5.74102 6.97459 5.53821C7.46147 5.33541 7.99755 5.28154 8.51505 5.38341C9.03255 5.48529 9.50821 5.73832 9.8819 6.11053C10.2556 6.48274 10.5105 6.9574 10.6144 7.47449C10.7183 7.99158 10.6666 8.52787 10.4657 9.01554C10.2648 9.50322 9.92388 9.92038 9.48592 10.2143C9.04796 10.5082 8.53269 10.6656 8.00526 10.6666C7.65505 10.6674 7.30813 10.5991 6.9843 10.4657C6.66048 10.3324 6.36609 10.1365 6.11797 9.8894C5.86984 9.64225 5.67283 9.34865 5.53819 9.02535C5.40355 8.70206 5.33391 8.3554 5.33326 8.00519Z" fill="#66377B"/>
</svg>
