<svg width="16" height="16" viewBox="0 0 16 16" fill="none" xmlns="http://www.w3.org/2000/svg">
<path d="M14.8189 0H1.18111C0.528889 0 0 0.528889 0 1.18111V14.8189C0 15.4711 0.528889 16 1.18111 16H14.8189C15.4711 16 16 15.4711 16 14.8189V1.18111C16 0.528889 15.4711 0 14.8189 0ZM4.76889 13.6311H2.36333V5.98889H4.76889V13.63V13.6311ZM3.56667 4.93111C2.80111 4.93111 2.18 4.34778 2.18 3.55C2.18 2.75222 2.80111 2.16889 3.56667 2.16889C4.33222 2.16889 4.95333 2.75222 4.95333 3.55C4.95333 4.34778 4.33222 4.93111 3.56667 4.93111ZM13.6378 13.6378H11.2322V9.46444C11.2322 8.23333 10.7089 7.85333 10.0333 7.85333C9.32 7.85333 8.62 8.39 8.62 9.49556V13.6389H6.21444V5.99444H8.52778V7.05333H8.55889C8.79111 6.58333 9.60444 5.78 10.8456 5.78C12.1878 5.78 13.6378 6.57667 13.6378 8.91V13.6367V13.6378Z" fill="#66377B"/>
</svg>
