<svg width="16" height="12" viewBox="0 0 16 12" fill="none" xmlns="http://www.w3.org/2000/svg">
<path d="M15.6668 2.11982C15.4824 1.43098 14.9411 0.889661 14.2522 0.705268C13.0036 0.370728 8 0.370728 8 0.370728C8 0.370728 2.99638 0.370728 1.74909 0.705268C1.06026 0.889661 0.518933 1.43098 0.334541 2.11982C0 3.36711 0 5.97099 0 5.97099C0 5.97099 0 8.57488 0.334541 9.82216C0.518933 10.511 1.06026 11.0523 1.74909 11.2367C2.99638 11.5713 8 11.5713 8 11.5713C8 11.5713 13.0036 11.5713 14.2509 11.2367C14.9397 11.0523 15.4811 10.511 15.6655 9.82216C16 8.57488 16 5.97099 16 5.97099C16 5.97099 16 3.36711 15.6655 2.11982H15.6668ZM6.39974 8.37073V3.57125L10.5565 5.97099L6.39974 8.37073Z" fill="#66377B"/>
</svg>
