<svg width="126" height="32" viewBox="0 0 126 32" fill="none" xmlns="http://www.w3.org/2000/svg">
<path d="M7.36442 16.4778L0 23.8317L8.14141 31.961L15.5058 24.6071V16.4778H7.36442ZM12.5909 23.402L8.14222 27.8442L4.1232 23.8317L8.57352 19.3878L12.5909 19.3894V23.402ZM15.5066 15.5223V7.39299L8.14303 0.0390625L0.00161536 8.16836L7.36685 15.5223H15.5066ZM12.5909 12.6106L8.57352 12.6122L4.1232 8.16836L8.14222 4.15581L12.5909 8.59804V12.6106ZM24.4226 15.5223L31.787 8.16836L23.6456 0.0390625L16.2812 7.39299V15.5223H24.4226ZM19.1961 8.59804L23.6448 4.15581L27.6638 8.16836L23.2135 12.6122L19.1961 12.6106V8.59804ZM16.2804 16.4778V24.6071L23.644 31.961L31.7854 23.8317L24.4202 16.4778H16.2804ZM19.1961 19.3894L23.2135 19.3878L27.6638 23.8317L23.6448 27.8434L19.1961 23.4012V19.3894Z" fill="#66377B"/>
<path d="M40.629 17.5753C40.6234 17.5642 40.6148 17.555 40.6043 17.5485C40.5937 17.542 40.5816 17.5386 40.5692 17.5386C40.5569 17.5386 40.5447 17.542 40.5342 17.5485C40.5236 17.555 40.5151 17.5642 40.5095 17.5753L33.41 31.8898C33.4046 31.9 33.402 31.9115 33.4025 31.923C33.4029 31.9346 33.4063 31.9458 33.4125 31.9556C33.4186 31.9654 33.4272 31.9734 33.4374 31.9789C33.4475 31.9843 33.459 31.987 33.4705 31.9867H47.8327C47.8441 31.9867 47.8553 31.9838 47.8653 31.9783C47.8753 31.9727 47.8836 31.9646 47.8895 31.9549C47.8955 31.9451 47.8988 31.934 47.8992 31.9226C47.8995 31.9112 47.8969 31.8999 47.8917 31.8898L40.629 17.5753ZM43.7273 29.6137H37.391C37.3426 29.6137 37.3102 29.562 37.3312 29.5176L40.4465 23.1515C40.4517 23.1401 40.46 23.1305 40.4705 23.1237C40.481 23.1168 40.4932 23.1131 40.5057 23.113C40.5182 23.1128 40.5305 23.1162 40.5412 23.1227C40.5519 23.1292 40.5605 23.1387 40.566 23.1499L43.7862 29.5168C43.8096 29.562 43.7773 29.6137 43.7273 29.6137ZM61.7409 14.4617H64.3077C64.3204 14.4618 64.3328 14.4581 64.3435 14.4513C64.3541 14.4444 64.3624 14.4345 64.3675 14.4229L65.8003 11.1292C65.8056 11.1176 65.8141 11.1078 65.8249 11.1011C65.8357 11.0943 65.8482 11.0909 65.8609 11.0912H71.4097C71.4347 11.0912 71.4581 11.1057 71.4694 11.1284L72.962 14.4237C72.9733 14.4471 72.9959 14.4608 73.0226 14.4608H75.7291C75.7406 14.4609 75.7519 14.4581 75.762 14.4526C75.772 14.4471 75.7805 14.4391 75.7866 14.4293C75.7926 14.4196 75.7961 14.4085 75.7967 14.397C75.7972 14.3856 75.7948 14.3742 75.7897 14.3639L68.7161 0.0502305C68.7107 0.0389455 68.7022 0.0294162 68.6916 0.0227451C68.681 0.0160741 68.6688 0.0125337 68.6563 0.0125337C68.6438 0.0125337 68.6315 0.0160741 68.621 0.0227451C68.6104 0.0294162 68.6019 0.0389455 68.5965 0.0502305L61.682 14.3647C61.6769 14.3749 61.6745 14.3861 61.675 14.3975C61.6755 14.4088 61.6788 14.4198 61.6847 14.4295C61.6906 14.4391 61.6988 14.4472 61.7087 14.4528C61.7185 14.4584 61.7296 14.4615 61.7409 14.4617ZM66.9505 8.68271L68.5359 5.28561C68.5414 5.27432 68.5499 5.26479 68.5605 5.25809C68.5711 5.2514 68.5833 5.2478 68.5959 5.24772C68.6084 5.24763 68.6207 5.25106 68.6314 5.25762C68.6421 5.26417 68.6507 5.27359 68.6563 5.2848L70.2983 8.6819C70.3032 8.69207 70.3055 8.70332 70.3048 8.71459C70.3042 8.72586 70.3008 8.7368 70.2948 8.74638C70.2889 8.75597 70.2806 8.76389 70.2707 8.76942C70.2609 8.77495 70.2498 8.77791 70.2385 8.77802H67.0102C66.999 8.77798 66.9879 8.77512 66.9781 8.76968C66.9682 8.76425 66.9599 8.75643 66.9539 8.74694C66.9478 8.73745 66.9443 8.72659 66.9436 8.71536C66.9428 8.70414 66.9457 8.69291 66.9505 8.68271ZM33.4891 14.4608H36.2853C36.2961 14.4611 36.3068 14.4586 36.3164 14.4537C36.3259 14.4488 36.3342 14.4415 36.3402 14.4326L39.9619 9.14228C39.968 9.13328 39.9763 9.12593 39.9859 9.12084C39.9955 9.11576 40.0063 9.1131 40.0172 9.1131C40.0281 9.1131 40.0388 9.11576 40.0485 9.12084C40.0581 9.12593 40.0664 9.13328 40.0725 9.14228L43.7151 14.4326C43.7211 14.4414 43.7292 14.4486 43.7387 14.4535C43.7481 14.4584 43.7586 14.461 43.7693 14.4608H46.5646C46.5768 14.4608 46.5888 14.4574 46.5992 14.4511C46.6096 14.4447 46.6181 14.4357 46.6237 14.4249C46.6294 14.4141 46.632 14.402 46.6312 14.3898C46.6305 14.3776 46.6265 14.3659 46.6196 14.3559L41.6846 7.16912C41.6766 7.15808 41.6723 7.14479 41.6723 7.13116C41.6723 7.11752 41.6766 7.10423 41.6846 7.0932L46.4354 0.19319C46.4423 0.183203 46.4463 0.171543 46.4471 0.159449C46.4478 0.147355 46.4453 0.13528 46.4397 0.124508C46.4342 0.113736 46.4258 0.104671 46.4155 0.0982763C46.4052 0.0918814 46.3934 0.0883962 46.3813 0.0881915H43.5843C43.5731 0.0878392 43.562 0.0904091 43.5521 0.0956487C43.5422 0.100888 43.5338 0.108617 43.5278 0.118076L40.1323 5.2C40.1262 5.20904 40.118 5.21646 40.1084 5.22161C40.0988 5.22677 40.0881 5.2295 40.0772 5.22958C40.0663 5.22966 40.0555 5.22708 40.0458 5.22207C40.0362 5.21705 40.0278 5.20975 40.0216 5.2008L36.5656 0.117268C36.5597 0.108046 36.5516 0.100467 36.542 0.0952402C36.5324 0.0900135 36.5216 0.0873103 36.5106 0.0873838H33.7145C33.7023 0.0872637 33.6903 0.0904986 33.6799 0.0967333C33.6694 0.102968 33.6609 0.111962 33.6552 0.122727C33.6495 0.133492 33.6469 0.145612 33.6477 0.157757C33.6485 0.169903 33.6526 0.181603 33.6595 0.191574L38.3683 7.09158C38.3836 7.1142 38.3836 7.14408 38.3683 7.1667L33.4334 14.3534C33.4043 14.4003 33.4366 14.4608 33.4899 14.4608M47.1179 14.4608H49.6847C49.6973 14.461 49.7096 14.4575 49.7202 14.4508C49.7309 14.444 49.7393 14.4343 49.7445 14.4229L51.1781 11.1292C51.1833 11.1176 51.1919 11.1078 51.2027 11.1011C51.2134 11.0943 51.226 11.0909 51.2387 11.0912H56.7874C56.8133 11.0912 56.8359 11.1057 56.848 11.1284L58.339 14.4229C58.3503 14.4463 58.3737 14.46 58.3996 14.46H61.1061C61.1176 14.4601 61.1289 14.4573 61.1389 14.4518C61.149 14.4463 61.1574 14.4383 61.1635 14.4285C61.1696 14.4188 61.1731 14.4077 61.1736 14.3962C61.1742 14.3848 61.1718 14.3734 61.1667 14.3631L54.0938 0.0494229C54.0885 0.0379145 54.0801 0.0281652 54.0694 0.021331C54.0587 0.0144967 54.0463 0.0108643 54.0337 0.0108643C54.021 0.0108643 54.0086 0.0144967 53.9979 0.021331C53.9873 0.0281652 53.9788 0.0379145 53.9735 0.0494229L47.0589 14.3647C47.0539 14.3749 47.0515 14.3861 47.052 14.3975C47.0524 14.4088 47.0558 14.4198 47.0617 14.4295C47.0676 14.4391 47.0758 14.4472 47.0856 14.4528C47.0955 14.4584 47.1066 14.4607 47.1179 14.4608ZM52.3258 8.68352L53.9129 5.28642C53.9184 5.27513 53.9269 5.2656 53.9375 5.2589C53.948 5.2522 53.9603 5.24861 53.9728 5.24853C53.9854 5.24844 53.9977 5.25187 54.0083 5.25843C54.019 5.26498 54.0277 5.2744 54.0333 5.28561L55.6761 8.68271C55.681 8.69294 55.6832 8.70426 55.6826 8.7156C55.6819 8.72693 55.6784 8.73792 55.6724 8.74753C55.6663 8.75714 55.6579 8.76505 55.648 8.77052C55.638 8.776 55.6269 8.77885 55.6155 8.77882H52.3872C52.3759 8.77892 52.3647 8.77616 52.3548 8.77079C52.3448 8.76541 52.3364 8.7576 52.3302 8.74809C52.3241 8.73857 52.3205 8.72766 52.3197 8.71637C52.3189 8.70508 52.321 8.69378 52.3258 8.68352ZM125.993 31.8914L118.73 17.5761C118.724 17.565 118.716 17.5558 118.705 17.5493C118.695 17.5428 118.683 17.5394 118.67 17.5394C118.658 17.5394 118.646 17.5428 118.635 17.5493C118.625 17.5558 118.616 17.565 118.61 17.5761L111.511 31.8906C111.506 31.9008 111.503 31.9122 111.504 31.9237C111.505 31.9351 111.508 31.9463 111.514 31.956C111.52 31.9657 111.529 31.9737 111.539 31.9792C111.549 31.9847 111.56 31.9876 111.572 31.9875H114.209C114.235 31.9875 114.258 31.9722 114.269 31.9487L118.549 23.1515C118.554 23.1401 118.563 23.1305 118.573 23.1237C118.584 23.1168 118.596 23.1131 118.608 23.113C118.621 23.1128 118.633 23.1162 118.644 23.1227C118.654 23.1292 118.663 23.1387 118.669 23.1499L123.091 31.9487C123.096 31.9602 123.105 31.9698 123.115 31.9764C123.126 31.983 123.139 31.9863 123.151 31.9859H125.933C125.944 31.9863 125.955 31.9838 125.965 31.9785C125.975 31.9732 125.984 31.9654 125.99 31.9559C125.996 31.9463 125.999 31.9353 126 31.924C126 31.9127 125.998 31.9014 125.993 31.8914ZM98.4096 19.9216V17.6819C98.4094 17.664 98.4021 17.647 98.3894 17.6344C98.3767 17.6219 98.3596 17.6148 98.3417 17.6148H90.3199C90.3021 17.6148 90.285 17.6219 90.2725 17.6345C90.2599 17.647 90.2528 17.6641 90.2528 17.6819V31.9197C90.2528 31.9568 90.2835 31.9875 90.3199 31.9875H92.7268C92.7356 31.9874 92.7443 31.9856 92.7523 31.9821C92.7604 31.9786 92.7678 31.9736 92.7739 31.9673C92.7801 31.961 92.7849 31.9535 92.7882 31.9454C92.7915 31.9372 92.7931 31.9285 92.793 31.9197V20.0548C92.793 20.0185 92.8237 19.9886 92.86 19.9886H98.3426C98.3603 19.9886 98.3774 19.9815 98.39 19.969C98.4025 19.9564 98.4096 19.9394 98.4096 19.9216ZM55.4152 17.5753C55.4097 17.564 55.4012 17.5545 55.3906 17.5479C55.3799 17.5413 55.3677 17.5379 55.3552 17.538C55.3427 17.5381 55.3304 17.5417 55.3199 17.5484C55.3094 17.5552 55.301 17.5647 55.2957 17.5761L48.3819 31.8914C48.3768 31.9015 48.3744 31.9128 48.3749 31.9242C48.3754 31.9355 48.3788 31.9466 48.3848 31.9562C48.3908 31.9659 48.3992 31.9739 48.4091 31.9793C48.4191 31.9848 48.4303 31.9876 48.4417 31.9875H51.0085C51.0212 31.9876 51.0336 31.984 51.0442 31.9771C51.0548 31.9702 51.0632 31.9603 51.0683 31.9487L52.5011 28.6558C52.5062 28.6441 52.5147 28.6341 52.5255 28.6272C52.5363 28.6203 52.5489 28.6168 52.5617 28.6171H58.1104C58.1355 28.6171 58.1589 28.6316 58.1702 28.6542L59.6628 31.9495C59.6679 31.9609 59.6762 31.9705 59.6867 31.9772C59.6971 31.9839 59.7093 31.9875 59.7217 31.9875H62.4291C62.4405 31.9876 62.4518 31.9847 62.4619 31.9792C62.472 31.9737 62.4804 31.9657 62.4865 31.956C62.4926 31.9463 62.4961 31.9351 62.4966 31.9237C62.4972 31.9122 62.4948 31.9008 62.4897 31.8906L55.4152 17.5753ZM56.9385 26.303H53.7102C53.6617 26.303 53.6294 26.2522 53.6496 26.2077L55.2359 22.8106C55.2414 22.7994 55.25 22.7899 55.2606 22.7833C55.2712 22.7767 55.2835 22.7732 55.2961 22.7732C55.3086 22.7732 55.3209 22.7767 55.3315 22.7833C55.3421 22.7899 55.3507 22.7994 55.3562 22.8106L56.9991 26.2069C57.0042 26.2172 57.0066 26.2286 57.006 26.2401C57.0054 26.2515 57.002 26.2626 56.9959 26.2724C56.9898 26.2821 56.9813 26.2901 56.9713 26.2956C56.9612 26.3011 56.9499 26.3031 56.9385 26.303ZM103.574 17.5761C103.568 17.5649 103.56 17.5554 103.549 17.5489C103.538 17.5423 103.526 17.5389 103.513 17.539C103.501 17.5391 103.489 17.5427 103.478 17.5494C103.467 17.5561 103.459 17.5656 103.454 17.5769L96.539 31.8914C96.5339 31.9015 96.5315 31.9127 96.5319 31.924C96.5324 31.9353 96.5357 31.9463 96.5417 31.9559C96.5476 31.9655 96.5558 31.9735 96.5657 31.979C96.5756 31.9846 96.5867 31.9875 96.598 31.9875H99.1648C99.1774 31.9876 99.1899 31.984 99.2005 31.9771C99.2111 31.9702 99.2195 31.9603 99.2245 31.9487L100.658 28.6558C100.663 28.6442 100.672 28.6343 100.682 28.6275C100.693 28.6206 100.705 28.6169 100.718 28.6171H106.267C106.292 28.6171 106.315 28.6316 106.326 28.6542L107.819 31.9495C107.824 31.961 107.833 31.9707 107.843 31.9774C107.854 31.9842 107.866 31.9877 107.879 31.9875H110.585C110.597 31.9876 110.608 31.9847 110.618 31.9792C110.628 31.9737 110.637 31.9657 110.643 31.956C110.649 31.9463 110.652 31.9351 110.653 31.9237C110.653 31.9122 110.651 31.9008 110.646 31.8906L103.574 17.5761ZM105.097 26.3039H101.869C101.82 26.3039 101.788 26.253 101.809 26.2085L103.395 22.8114C103.4 22.8002 103.409 22.7907 103.419 22.7841C103.43 22.7775 103.442 22.774 103.455 22.774C103.467 22.774 103.48 22.7775 103.49 22.7841C103.501 22.7907 103.509 22.8002 103.515 22.8114L105.158 26.2077C105.163 26.218 105.165 26.2294 105.165 26.2409C105.164 26.2523 105.161 26.2634 105.155 26.2732C105.149 26.2829 105.14 26.2909 105.13 26.2964C105.12 26.3019 105.109 26.3048 105.097 26.3047M87.7951 0.0889992H85.4229C85.414 0.0889985 85.4053 0.0907589 85.3971 0.0941782C85.3889 0.0975976 85.3815 0.102608 85.3752 0.108919C85.369 0.115229 85.3641 0.122715 85.3607 0.130942C85.3574 0.139169 85.3558 0.147973 85.3559 0.156844V5.8946C85.3558 5.9034 85.3539 5.9121 85.3505 5.92019C85.347 5.92829 85.342 5.93562 85.3357 5.94177C85.3294 5.94792 85.3219 5.95277 85.3137 5.95604C85.3056 5.95931 85.2968 5.96094 85.288 5.96083H78.8508C78.8332 5.96083 78.8162 5.95388 78.8037 5.94148C78.7912 5.92908 78.784 5.91224 78.7838 5.8946V0.157652C78.7839 0.148848 78.7823 0.14011 78.779 0.131936C78.7757 0.123761 78.7709 0.116311 78.7647 0.110011C78.7586 0.103711 78.7512 0.0986843 78.7431 0.0952175C78.7351 0.0917508 78.7264 0.0899123 78.7176 0.0898068H76.3244C76.3155 0.089573 76.3067 0.0911805 76.2984 0.0945287C76.2902 0.0978768 76.2827 0.102893 76.2765 0.109263C76.2702 0.115634 76.2654 0.12322 76.2623 0.131547C76.2591 0.139874 76.2577 0.148761 76.2582 0.157652V14.3946C76.2582 14.431 76.2881 14.4617 76.3244 14.4617H78.7176C78.7264 14.4619 78.7352 14.4603 78.7434 14.457C78.7515 14.4537 78.759 14.4488 78.7652 14.4425C78.7714 14.4362 78.7762 14.4287 78.7794 14.4205C78.7826 14.4122 78.7841 14.4034 78.7838 14.3946V8.38791C78.7838 8.35075 78.8137 8.32006 78.8508 8.32006H85.2888C85.3268 8.32006 85.3567 8.34995 85.3567 8.38791V14.393C85.3567 14.4293 85.3858 14.46 85.4237 14.46H87.7959C87.8137 14.46 87.8307 14.453 87.8433 14.4404C87.8559 14.4278 87.8629 14.4108 87.8629 14.393V0.156844C87.8627 0.138916 87.8555 0.121781 87.8428 0.109102C87.8301 0.0964241 87.813 0.0892089 87.7951 0.0889992ZM70.0285 17.5761C70.0231 17.5648 70.0145 17.5553 70.0039 17.5487C69.9933 17.5421 69.981 17.5387 69.9685 17.5388C69.956 17.5389 69.9438 17.5425 69.9333 17.5492C69.9227 17.556 69.9143 17.5656 69.909 17.5769L62.9945 31.8914C62.9896 31.9016 62.9873 31.9128 62.9879 31.9241C62.9885 31.9353 62.992 31.9463 62.9979 31.9559C63.0039 31.9655 63.0122 31.9734 63.022 31.9789C63.0319 31.9844 63.0429 31.9874 63.0542 31.9875H65.621C65.6337 31.9876 65.6461 31.984 65.6567 31.9771C65.6674 31.9702 65.6757 31.9603 65.6808 31.9487L67.1144 28.6558C67.1195 28.6442 67.1279 28.6343 67.1385 28.6275C67.1491 28.6206 67.1615 28.6169 67.1742 28.6171H72.723C72.748 28.6171 72.7714 28.6316 72.7827 28.6542L74.2753 31.9495C74.2866 31.9738 74.3092 31.9875 74.3359 31.9875H77.0424C77.0539 31.9876 77.0652 31.9847 77.0752 31.9792C77.0853 31.9737 77.0938 31.9657 77.0998 31.956C77.1059 31.9463 77.1094 31.9351 77.11 31.9237C77.1105 31.9122 77.1081 31.9008 77.103 31.8906L70.0285 17.5761ZM71.5518 26.3039H68.3235C68.2751 26.3039 68.2428 26.253 68.263 26.2085L69.8492 22.8114C69.8548 22.8002 69.8633 22.7907 69.874 22.7841C69.8846 22.7775 69.8969 22.774 69.9094 22.774C69.9219 22.774 69.9342 22.7775 69.9449 22.7841C69.9555 22.7907 69.9641 22.8002 69.9696 22.8114L71.6124 26.2077C71.6175 26.218 71.6199 26.2294 71.6194 26.2409C71.6188 26.2523 71.6153 26.2634 71.6092 26.2732C71.6032 26.2829 71.5947 26.2909 71.5846 26.2964C71.5746 26.3019 71.5633 26.3048 71.5518 26.3047M87.699 17.6165H75.9189C75.9101 17.6162 75.9013 17.6178 75.8931 17.6211C75.885 17.6244 75.8775 17.6294 75.8713 17.6356C75.8651 17.6419 75.8603 17.6494 75.8571 17.6576C75.8539 17.6659 75.8524 17.6747 75.8527 17.6835V19.9232C75.8527 19.9595 75.8818 19.9902 75.9189 19.9902H80.4726C80.509 19.9902 80.5397 20.0201 80.5397 20.0565V31.9213C80.5397 31.9584 80.5696 31.9891 80.6059 31.9891H83.012C83.0209 31.9891 83.0296 31.9874 83.0378 31.9839C83.046 31.9805 83.0534 31.9755 83.0597 31.9692C83.0659 31.9629 83.0708 31.9554 83.0742 31.9472C83.0775 31.9389 83.0791 31.9301 83.079 31.9213V20.0565C83.079 20.0201 83.1089 19.9902 83.1461 19.9902H87.6998C87.7175 19.9902 87.7346 19.9832 87.7472 19.9706C87.7597 19.958 87.7668 19.941 87.7668 19.9232V17.6835C87.7664 17.6657 87.7591 17.6488 87.7464 17.6363C87.7338 17.6238 87.7167 17.6167 87.699 17.6165Z" fill="#1E1E20"/>
</svg>
